<svg xmlns="http://www.w3.org/2000/svg" viewBox="0 0 436.39 170.19"><defs><style>.cls-1{fill:#fff;}</style></defs><title>HNEE_Logo_Dt_weiss</title><g id="Ebene_2" data-name="Ebene 2"><g id="Grundlogo_Vektor_V2" data-name="Grundlogo Vektor V2"><path class="cls-1" d="M39.21,59.56h-8s1.07-13,1-13.09c.14.14-.39,0-.59,0-10.43,0-18.88-7.95-18.88-17.76A17.8,17.8,0,0,1,24.53,12.25a25.57,25.57,0,0,0-.91,6.82A25.93,25.93,0,0,0,40.13,43.23Zm-9.5-38A21.56,21.56,0,0,0,45.09,42.22l-1,17.34h14.4l-1-17.34A21.56,21.56,0,1,0,29.71,21.56m-3.48,38,.85-11.26A21.28,21.28,0,0,1,6,27c0-.44,0-.87,0-1.3a14.89,14.89,0,0,0-6,11.8C0,46.08,7.7,53,17.19,53a19.69,19.69,0,0,0,2.9-.22l-.67,6.76Zm37.1,0h8l-1-13.09h.59c10.43,0,18.88-8,18.88-17.76A17.79,17.79,0,0,0,78,12.24a25.94,25.94,0,0,1-15.61,31Zm19.78,0-.67-6.76a19.7,19.7,0,0,0,2.9.21c9.49,0,17.19-6.93,17.19-15.5a14.89,14.89,0,0,0-6-11.79c0,.43,0,.86,0,1.3A21.29,21.29,0,0,1,75.45,48.29l.86,11.26ZM19.38,75.16h4.88v8.33h7.46V75.16h4.91V96.79H31.72v-9H24.26v9H19.38Zm20.77,13.4c0-5.47,3.84-8.62,8-8.62s8,3.15,8,8.62-3.85,8.63-8,8.63S40.15,94,40.15,88.56Zm11,0c0-2.85-1-4.67-3-4.67s-3,1.82-3,4.67,1,4.68,3,4.68S51.19,91.42,51.19,88.56Zm7.53,0a8.27,8.27,0,0,1,8.56-8.62,7.27,7.27,0,0,1,4.81,1.76L69.8,84.85a3.37,3.37,0,0,0-2.22-1c-2.36,0-3.85,1.82-3.85,4.67s1.56,4.68,3.68,4.68a5.09,5.09,0,0,0,3-1.19l1.92,3.18a8.21,8.21,0,0,1-5.44,2C62.27,97.19,58.72,94,58.72,88.56Zm16.62-15h4.88v5.7l-.23,3a7.55,7.55,0,0,1,5.07-2.25c3.58,0,5.11,2.52,5.11,6.63V96.79H85.29V87.2c0-2.38-.63-3.11-2-3.11-1.23,0-2,.56-3,1.59V96.79H75.34ZM93,94.9l2.19-3.05a7.06,7.06,0,0,0,4.25,1.72c1.46,0,2.09-.53,2.09-1.39,0-1.09-1.66-1.59-3.36-2.26-2-.76-4.27-2.12-4.27-4.84,0-3,2.52-5.14,6.3-5.14A9.37,9.37,0,0,1,106,82L103.8,85a6,6,0,0,0-3.45-1.4c-1.26,0-1.89.47-1.89,1.3,0,1.06,1.46,1.46,3.15,2.09,2.09.76,4.45,1.92,4.45,4.94s-2.36,5.31-6.77,5.31A10.63,10.63,0,0,1,93,94.9Zm15.36-6.34a8.27,8.27,0,0,1,8.56-8.62,7.27,7.27,0,0,1,4.81,1.76l-2.29,3.15a3.39,3.39,0,0,0-2.22-1c-2.36,0-3.85,1.82-3.85,4.67s1.56,4.68,3.68,4.68A5,5,0,0,0,120,92.05l1.93,3.18a8.21,8.21,0,0,1-5.44,2C111.9,97.19,108.35,94,108.35,88.56Zm16.62-15h4.87v5.7l-.23,3a7.6,7.6,0,0,1,5.08-2.25c3.58,0,5.11,2.52,5.11,6.63V96.79h-4.88V87.2c0-2.38-.63-3.11-2-3.11-1.23,0-2,.56-3.06,1.59V96.79H125Zm18.94,17V80.34h4.88v9.58c0,2.36.63,3.12,2.05,3.12,1.23,0,2-.53,2.92-1.82V80.34h4.88V96.79h-4l-.37-2.29h-.1A6.41,6.41,0,0,1,149,97.19C145.44,97.19,143.91,94.67,143.91,90.55Zm19.17,1.13V73.54H168V91.88c0,1,.46,1.36.86,1.36a2,2,0,0,0,.6-.07l.6,3.62a6.4,6.4,0,0,1-2.46.4C164.21,97.19,163.08,95,163.08,91.68Zm8.7-3.12c0-5.34,3.81-8.62,7.76-8.62,4.67,0,7,3.42,7,7.89a10.73,10.73,0,0,1-.2,2.16h-9.85a4,4,0,0,0,4.27,3.48,6.6,6.6,0,0,0,3.55-1.09l1.63,3a10.77,10.77,0,0,1-5.84,1.86C175.39,97.19,171.78,94,171.78,88.56Zm10.61-1.79c0-1.82-.8-3.12-2.75-3.12-1.53,0-2.86,1-3.19,3.12ZM19.81,120.65H17.62V117l2.19-.17V116c0-3.48,1.63-6.33,6.07-6.33a9.76,9.76,0,0,1,3.29.6l-.9,3.58a5.22,5.22,0,0,0-1.69-.33c-1.2,0-1.89.66-1.89,2.35v1h2.95v3.81H24.69v12.64H19.81Zm10.48,6.4V116.84h4.88v9.58c0,2.36.63,3.12,2.06,3.12,1.22,0,2-.53,2.92-1.82V116.84H45v16.45H41L40.68,131h-.1a6.42,6.42,0,0,1-5.18,2.69C31.82,133.69,30.29,131.17,30.29,127.05Zm1.46-15a2.32,2.32,0,0,1,2.39-2.36,2.38,2.38,0,0,1,0,4.75A2.32,2.32,0,0,1,31.75,112ZM39,112a2.28,2.28,0,0,1,2.35-2.36A2.38,2.38,0,1,1,39,112Zm10.45,4.81h4l.33,2.88h.13c1.2-2.22,3-3.28,4.68-3.28a4.75,4.75,0,0,1,2,.33l-.8,4.21a6.34,6.34,0,0,0-1.79-.26c-1.23,0-2.75.79-3.62,3v9.55H49.47Zm20.17,0h4l.33,2.09h.13a7.56,7.56,0,0,1,5.28-2.49c3.58,0,5.1,2.52,5.1,6.63v10.22H79.59V123.7c0-2.38-.63-3.11-2-3.11-1.22,0-2,.56-3,1.59v11.11H69.64Zm18.27,8.22c0-5.37,3.35-8.62,6.94-8.62a5.56,5.56,0,0,1,4.28,2h.13l.4-1.62h3.81v16.45h-4l-.33-1.62H99a6.54,6.54,0,0,1-4.38,2C90.57,133.69,87.91,130.44,87.91,125.06Zm10.68,3.16v-6.74a3.91,3.91,0,0,0-2.72-1.06c-1.55,0-3,1.46-3,4.58s1.1,4.71,3,4.71A3.08,3.08,0,0,0,98.59,128.22Zm8.4-3.16a8.27,8.27,0,0,1,8.56-8.62,7.27,7.27,0,0,1,4.81,1.76l-2.29,3.15a3.39,3.39,0,0,0-2.23-1c-2.35,0-3.84,1.82-3.84,4.67s1.56,4.68,3.68,4.68a5,5,0,0,0,2.95-1.19l1.93,3.18a8.22,8.22,0,0,1-5.45,2C110.54,133.69,107,130.54,107,125.06Zm16.62-15h4.87v5.7l-.23,3a7.58,7.58,0,0,1,5.08-2.25c3.58,0,5.11,2.52,5.11,6.63v10.22h-4.88V123.7c0-2.38-.63-3.11-2-3.11-1.23,0-2,.56-3.06,1.59v11.11h-4.87Zm19.11,0h4.87v5.7l-.23,3a7.58,7.58,0,0,1,5.08-2.25c3.58,0,5.1,2.52,5.1,6.63v10.22h-4.87V123.7c0-2.38-.63-3.11-2-3.11-1.22,0-2,.56-3,1.59v11.11h-4.87Zm18.24,15c0-5.37,3.35-8.62,6.93-8.62a5.53,5.53,0,0,1,4.28,2h.14l.39-1.62h3.82v16.45h-4l-.33-1.62h-.14a6.5,6.5,0,0,1-4.38,2C163.61,133.69,161,130.44,161,125.06Zm10.68,3.16v-6.74a3.91,3.91,0,0,0-2.72-1.06c-1.56,0-2.95,1.46-2.95,4.58s1.09,4.71,3,4.71A3.08,3.08,0,0,0,171.64,128.22Zm9.22,0V110h4.88v18.34c0,1,.47,1.36.86,1.36a2,2,0,0,0,.6-.07l.6,3.62a6.4,6.4,0,0,1-2.46.4C182,133.69,180.86,131.5,180.86,128.18Zm10.32-.86v-6.67h-2.25V117l2.52-.2.56-4.38h4.05v4.38H200v3.81h-3.95v6.6c0,1.86.83,2.62,2.12,2.62a4.56,4.56,0,0,0,1.56-.33l.76,3.55a11.65,11.65,0,0,1-3.65.6C192.77,133.69,191.18,131.13,191.18,127.32Zm11.88-15.46a2.76,2.76,0,1,1,2.75,2.56A2.52,2.52,0,0,1,203.06,111.86Zm.33,5h4.88v16.45h-4.88Zm8.29,19.27c0-1.36.83-2.45,2.36-3.32v-.13a3.15,3.15,0,0,1-1.53-2.79,4,4,0,0,1,1.86-3.08v-.13a5.28,5.28,0,0,1-2.22-4.28c0-3.95,3.25-5.94,6.8-5.94a7.54,7.54,0,0,1,2.55.4h6v3.55h-2.62a4.33,4.33,0,0,1,.53,2.15c0,3.78-2.85,5.54-6.46,5.54a6.61,6.61,0,0,1-2-.33,1.38,1.38,0,0,0-.6,1.23c0,.83.66,1.23,2.49,1.23h2.65c4.05,0,6.27,1.22,6.27,4.18,0,3.41-3.55,5.9-9.19,5.9C214.73,140.29,211.68,139,211.68,136.11Zm11.45-.9c0-1-.9-1.29-2.53-1.29h-1.69a9.66,9.66,0,0,1-2.32-.2,2.14,2.14,0,0,0-.89,1.63c0,1.22,1.46,1.89,3.64,1.89S223.13,136.34,223.13,135.21Zm-1.93-12.83c0-1.73-1-2.66-2.25-2.66s-2.26.9-2.26,2.66,1,2.75,2.26,2.75S221.2,124.2,221.2,122.38Zm7.83,2.68c0-5.34,3.82-8.62,7.76-8.62,4.68,0,7,3.42,7,7.89a10.73,10.73,0,0,1-.2,2.16h-9.85A4,4,0,0,0,238,130a6.6,6.6,0,0,0,3.55-1.09l1.63,3a10.82,10.82,0,0,1-5.84,1.86C232.65,133.69,229,130.5,229,125.06Zm10.62-1.79c0-1.82-.8-3.12-2.76-3.12-1.52,0-2.85,1-3.18,3.12Zm14.89-11.61h13.54v4.12h-8.66v4.34h7.36v4.08h-7.36v5h9v4.11H254.54Zm17.75,5.18h4l.33,2.09h.13a7.6,7.6,0,0,1,5.28-2.49c3.58,0,5.11,2.52,5.11,6.63v10.22h-4.88V123.7c0-2.38-.63-3.11-2-3.11-1.23,0-2,.56-3.06,1.59v11.11h-4.87Zm19.8,10.48v-6.67h-2.25V117l2.52-.2.56-4.38H297v4.38h3.95v3.81H297v6.6c0,1.86.83,2.62,2.12,2.62a4.56,4.56,0,0,0,1.56-.33l.76,3.55a11.65,11.65,0,0,1-3.65.6C293.68,133.69,292.09,131.13,292.09,127.32Zm10.85-10.48h4.84l1.6,7.63c.26,1.62.46,3.21.73,4.87h.13c.3-1.66.56-3.31,1-4.87l1.82-7.63h4.22l1.85,7.63c.4,1.62.7,3.21,1,4.87h.14c.29-1.66.46-3.25.76-4.87l1.56-7.63h4.51l-3.95,16.45h-5.7l-1.5-6.57c-.33-1.52-.59-3-.89-4.81h-.13c-.3,1.76-.54,3.29-.83,4.81l-1.46,6.57h-5.58Zm26.94-5a2.76,2.76,0,1,1,2.75,2.56A2.52,2.52,0,0,1,329.88,111.86Zm.33,5h4.87v16.45h-4.87Zm8.36,8.22a8.27,8.27,0,0,1,8.56-8.62,7.27,7.27,0,0,1,4.81,1.76l-2.29,3.15a3.39,3.39,0,0,0-2.22-1c-2.36,0-3.85,1.82-3.85,4.67s1.56,4.68,3.68,4.68a5,5,0,0,0,2.95-1.19l1.93,3.18a8.22,8.22,0,0,1-5.45,2C342.12,133.69,338.57,130.54,338.57,125.06Zm16.62-15h4.74v13.33h.13l5.21-6.53h5.31l-5.77,6.76,6.2,9.69h-5.27l-3.72-6.4-2.09,2.35v4h-4.74Zm18.34,18.14V110h4.88v18.34c0,1,.46,1.36.86,1.36a2,2,0,0,0,.6-.07l.59,3.62a6.38,6.38,0,0,1-2.45.4C374.66,133.69,373.53,131.5,373.53,128.18Zm9.49-1.13V116.84h4.88v9.58c0,2.36.63,3.12,2.05,3.12,1.23,0,2-.53,2.92-1.82V116.84h4.88v16.45h-4L393.4,131h-.1a6.41,6.41,0,0,1-5.17,2.69C384.55,133.69,383,131.17,383,127.05Zm19.17-10.21h4l.34,2.09h.13a7.56,7.56,0,0,1,5.27-2.49c3.58,0,5.11,2.52,5.11,6.63v10.22h-4.88V123.7c0-2.38-.63-3.11-2-3.11-1.23,0-2,.56-3.05,1.59v11.11h-4.88Zm18.11,19.27c0-1.36.83-2.45,2.36-3.32v-.13a3.17,3.17,0,0,1-1.53-2.79,4,4,0,0,1,1.86-3.08v-.13a5.28,5.28,0,0,1-2.22-4.28c0-3.95,3.25-5.94,6.8-5.94a7.5,7.5,0,0,1,2.55.4h6v3.55h-2.62a4.33,4.33,0,0,1,.53,2.15c0,3.78-2.85,5.54-6.47,5.54a6.61,6.61,0,0,1-2-.33A1.41,1.41,0,0,0,425,129c0,.83.67,1.23,2.49,1.23h2.65c4.05,0,6.27,1.22,6.27,4.18,0,3.41-3.55,5.9-9.19,5.9C423.36,140.29,420.3,139,420.3,136.11Zm11.45-.9c0-1-.9-1.29-2.52-1.29h-1.69a9.82,9.82,0,0,1-2.33-.2,2.17,2.17,0,0,0-.89,1.63c0,1.22,1.46,1.89,3.65,1.89S431.75,136.34,431.75,135.21Zm-1.92-12.83c0-1.73-1-2.66-2.26-2.66s-2.26.9-2.26,2.66,1,2.75,2.26,2.75S429.83,124.2,429.83,122.38ZM19.38,148.16H32.91v4.12H24.26v4.34h7.36v4.08H24.26v5h9v4.11H19.38ZM41.47,168h-.13l-.4,1.76H37.13V146.54H42v5.7l-.13,2.52a6.72,6.72,0,0,1,4.35-1.82c4,0,6.46,3.28,6.46,8.33,0,5.67-3.38,8.92-6.93,8.92A5.9,5.9,0,0,1,41.47,168Zm6.21-6.67c0-3-.9-4.44-2.86-4.44A3.76,3.76,0,0,0,42,158.41v6.74a3.82,3.82,0,0,0,2.62,1.06C46.32,166.21,47.68,164.75,47.68,161.36Zm7.66.2c0-5.34,3.81-8.62,7.76-8.62,4.68,0,7,3.42,7,7.89a10.73,10.73,0,0,1-.2,2.16H60.05a4,4,0,0,0,4.28,3.48,6.63,6.63,0,0,0,3.55-1.09l1.62,3a10.76,10.76,0,0,1-5.83,1.86C59,170.19,55.34,167,55.34,161.56ZM66,159.77c0-1.82-.79-3.12-2.75-3.12-1.52,0-2.85,1-3.18,3.12Zm7.7-6.43h4l.33,2.88h.14c1.19-2.22,3-3.28,4.67-3.28a4.71,4.71,0,0,1,2,.33l-.8,4.21a6.29,6.29,0,0,0-1.79-.26c-1.23,0-2.75.79-3.61,3v9.55H73.65ZM85.29,167.9l2.19-3.05a7.1,7.1,0,0,0,4.25,1.72c1.46,0,2.09-.53,2.09-1.39,0-1.09-1.66-1.59-3.35-2.26-2-.76-4.28-2.12-4.28-4.84,0-3.05,2.52-5.14,6.3-5.14A9.43,9.43,0,0,1,98.3,155L96.11,158a6,6,0,0,0-3.45-1.4c-1.26,0-1.89.47-1.89,1.3,0,1.06,1.46,1.46,3.15,2.09,2.09.76,4.44,1.92,4.44,4.94s-2.35,5.31-6.76,5.31A10.64,10.64,0,0,1,85.29,167.9Zm15-14.56h4.85l1.59,7.63c.27,1.62.46,3.21.73,4.87h.13c.3-1.66.57-3.31,1-4.87l1.83-7.63h4.21l1.86,7.63c.4,1.62.7,3.21,1,4.87h.13c.3-1.66.46-3.25.76-4.87l1.56-7.63h4.51l-3.94,16.45h-5.71l-1.49-6.57c-.33-1.52-.6-3.05-.9-4.81h-.13c-.3,1.76-.53,3.29-.83,4.81l-1.46,6.57h-5.57Zm26.08,8.22c0-5.37,3.35-8.62,6.93-8.62a5.53,5.53,0,0,1,4.28,2h.13l.4-1.62h3.82v16.45h-4l-.34-1.62h-.13a6.52,6.52,0,0,1-4.38,2C129,170.19,126.33,166.94,126.33,161.56ZM137,164.72V158a3.91,3.91,0,0,0-2.72-1.06c-1.56,0-2.95,1.46-2.95,4.58s1.09,4.71,3,4.71A3.11,3.11,0,0,0,137,164.72Zm9.16,0V146.54H151v18.34c0,1,.47,1.36.86,1.36a1.94,1.94,0,0,0,.6-.07l.6,3.62a6.4,6.4,0,0,1-2.46.4C147.29,170.19,146.17,168,146.17,164.68Zm8.79-3.12c0-5.37,3.35-8.62,6.83-8.62a5.41,5.41,0,0,1,4.05,1.72l-.2-2.52v-5.6h4.87v23.25h-4l-.33-1.62h-.13a6.52,6.52,0,0,1-4.38,2C157.61,170.19,155,166.94,155,161.56Zm10.68,3.16V158a3.93,3.93,0,0,0-2.72-1.06c-1.56,0-2.95,1.46-2.95,4.58s1.09,4.71,3,4.71A3.11,3.11,0,0,0,165.64,164.72Zm8.39-3.16c0-5.34,3.82-8.62,7.76-8.62,4.68,0,7,3.42,7,7.89a10.73,10.73,0,0,1-.2,2.16h-9.85a4,4,0,0,0,4.28,3.48,6.6,6.6,0,0,0,3.55-1.09l1.63,3a10.82,10.82,0,0,1-5.84,1.86C177.65,170.19,174,167,174,161.56Zm10.62-1.79c0-1.82-.8-3.12-2.76-3.12-1.52,0-2.85,1-3.18,3.12Z"/></g></g></svg>