<svg xmlns="http://www.w3.org/2000/svg" viewBox="0 0 107.35 104.16"><defs><style>.cls-1{fill:#00523d;}</style></defs><title>Element 3_gruen</title><g id="Ebene_2" data-name="Ebene 2"><g id="Grün"><path class="cls-1" d="M41.05,62.36H32.66s1.12-13.62,1-13.71c.14.15-.42,0-.62,0-10.92,0-19.77-8.32-19.77-18.59A18.62,18.62,0,0,1,25.68,12.83,27.18,27.18,0,0,0,42,45.27ZM31.11,22.57A22.6,22.6,0,0,0,47.2,44.21L46.15,62.36H61.22l-1-18.15A22.58,22.58,0,1,0,31.11,22.57M27.46,62.36l.9-11.79A22.28,22.28,0,0,1,6.28,28.29c0-.46,0-.91,0-1.36A15.59,15.59,0,0,0,0,39.28c0,9,8.06,16.23,18,16.23a20.23,20.23,0,0,0,3-.23l-.7,7.08Zm38.87,0h8.36l-1-13.71h.62C85.19,48.65,94,40.32,94,30.06A18.64,18.64,0,0,0,81.67,12.81,27.18,27.18,0,0,1,65.33,45.25Zm20.69,0-.71-7.08a20.23,20.23,0,0,0,3,.23c9.94,0,18-7.27,18-16.23A15.59,15.59,0,0,0,101,26.92c0,.45,0,.9,0,1.36A22.29,22.29,0,0,1,79,50.56l.9,11.79ZM7.27,78.08h5.88v10h9v-10h5.92v26.08H22.15V93.28h-9v10.88H7.27Zm27.56,0h6l6.8,13,2.56,5.76h.16c-.24-2.76-.72-6.44-.72-9.52v-9.2h5.6v26.08h-6l-6.8-13-2.56-5.68h-.16c.24,2.88.72,6.36.72,9.44v9.24h-5.6Zm27.2,0H78.35v5H67.91v5.24h8.88V93.2H67.91v6H78.75v5H62Zm22.52,0h16.32v5H90.43v5.24h8.88V93.2H90.43v6h10.84v5H84.55Z"/></g></g></svg>